<?xml version="1.0" encoding="iso-8859-1"?>
<!-- Generator: Adobe Illustrator 21.0.0, SVG Export Plug-In . SVG Version: 6.00 Build 0)  -->
<svg version="1.1" id="Capa_1" xmlns="http://www.w3.org/2000/svg" xmlns:xlink="http://www.w3.org/1999/xlink" x="0px" y="0px"
	 viewBox="0 0 587.697 587.697" style="enable-background:new 0 0 587.697 587.697;" xml:space="preserve">
<g>
	<g>
		<g id="flat_13_">
			<path style="fill:#4398D1;" d="M30.398,20.265h445.839c16.79,0,30.398,13.608,30.398,30.398v405.308
				c0,16.79-13.608,30.398-30.398,30.398H30.398C13.608,486.37,0,472.761,0,455.971V50.663C0,33.874,13.608,20.265,30.398,20.265z"
				/>
			<rect x="30.398" y="50.663" style="fill:#3E8CC7;" width="20.265" height="20.265"/>
			<rect x="70.929" y="50.663" style="fill:#3E8CC7;" width="20.265" height="20.265"/>
			<rect x="111.46" y="50.663" style="fill:#3E8CC7;" width="20.265" height="20.265"/>
			<path style="fill:#87CED9;" d="M111.46,101.327h445.839c16.79,0,30.398,13.608,30.398,30.398v405.308
				c0,16.79-13.608,30.398-30.398,30.398H111.46c-16.79,0-30.398-13.608-30.398-30.398V131.725
				C81.062,114.935,94.67,101.327,111.46,101.327z"/>
			<path style="fill:#71C4D1;" d="M557.298,101.327h-20.265L85.581,552.779c5.462,9.079,15.28,14.642,25.879,14.652h445.839
				c16.79,0,30.398-13.608,30.398-30.398l0,0V131.725C587.697,114.935,574.088,101.327,557.298,101.327z"/>
			<rect x="111.46" y="131.725" style="fill:#5EB3D1;" width="20.265" height="20.265"/>
			<rect x="151.99" y="131.725" style="fill:#5EB3D1;" width="20.265" height="20.265"/>
			<rect x="192.521" y="131.725" style="fill:#5EB3D1;" width="20.265" height="20.265"/>
			<rect x="111.46" y="172.256" style="fill:#5EB3D1;" width="445.839" height="20.265"/>
			<rect x="111.46" y="222.919" style="fill:#5EB3D1;" width="81.062" height="20.265"/>
			<rect x="111.46" y="263.45" style="fill:#5EB3D1;" width="60.796" height="20.265"/>
			<path style="fill:#E34B87;" d="M486.37,405.308v-60.796h-34.38c-2.827-10.984-7.184-21.502-12.95-31.27l24.318-24.318
				l-42.993-42.993l-24.318,24.318c-9.768-5.766-20.286-10.123-31.27-12.95v-34.38h-60.796v34.38
				c-10.984,2.827-21.502,7.184-31.27,12.95l-24.318-24.318L205.4,288.924l24.318,24.318c-5.766,9.758-10.123,20.286-12.95,31.27
				h-34.38v60.796h34.38c2.827,10.984,7.184,21.502,12.95,31.27L205.4,460.896l42.993,42.993l24.318-24.318
				c9.768,5.766,20.286,10.123,31.27,12.95v34.38h60.796v-34.38c10.984-2.827,21.502-7.184,31.27-12.95l24.318,24.318l42.993-42.993
				l-24.318-24.318c5.766-9.768,10.123-20.286,12.95-31.27H486.37z M334.379,435.706c-33.58,0-60.796-27.216-60.796-60.796
				s27.216-60.796,60.796-60.796s60.796,27.216,60.796,60.796S367.959,435.706,334.379,435.706z"/>
			<rect x="496.502" y="516.768" style="fill:#5EB3D1;" width="60.796" height="20.265"/>
			<path style="fill:#D94881;" d="M439.04,313.242l24.318-24.318l-19.961-19.972c-17.621,25.524-37.146,49.681-58.405,72.266
				c18.553,27.987,10.893,65.711-17.094,84.264c-22.505,14.915-52.163,13.203-72.793-4.215
				c-24.947,18.644-50.988,35.789-77.971,51.332l31.28,31.28l24.318-24.318c9.758,5.766,20.276,10.133,31.249,12.96v34.38h60.796
				v-34.38c10.984-2.827,21.502-7.184,31.27-12.95l24.318,24.318l42.993-42.993l-24.318-24.318
				c5.766-9.768,10.123-20.286,12.95-31.27h34.38v-60.796h-34.38C449.162,333.528,444.805,323.01,439.04,313.242z"/>
			<path style="fill:#3E8CC7;" d="M81.062,131.725L81.062,131.725L81.062,131.725V486.37l0,0H50.663l0,0V162.123
				C50.663,145.333,64.272,131.725,81.062,131.725z"/>
		</g>
	</g>
</g>
<g>
</g>
<g>
</g>
<g>
</g>
<g>
</g>
<g>
</g>
<g>
</g>
<g>
</g>
<g>
</g>
<g>
</g>
<g>
</g>
<g>
</g>
<g>
</g>
<g>
</g>
<g>
</g>
<g>
</g>
</svg>
